<?xml version="1.0" encoding="utf-8"?>
<!-- Generator: Adobe Illustrator 24.0.1, SVG Export Plug-In . SVG Version: 6.00 Build 0)  -->
<svg version="1.1" id="Camada_1" xmlns="http://www.w3.org/2000/svg" xmlns:xlink="http://www.w3.org/1999/xlink" x="0px" y="0px"
	 viewBox="0 0 182.5 139.7" style="enable-background:new 0 0 182.5 139.7;" xml:space="preserve">
<style type="text/css">
	.st0{fill:#EF4D21;}
</style>
<g>
	<g>
		<path class="st0" d="M0,87.8c0-13.1,0-25.4,0-38.2c16.2-0.5,25.3-12,34.8-22.7c12-13.5,26.1-23.4,44.3-26
			c24.3-3.4,45.9,2.4,63.5,20.5c2.7,2.7,2.9,4.4-0.1,7.2c-8.1,7.8-15.9,16-24.2,24.4c-5.8-7.6-12.6-12.5-21.7-14
			c-10.5-1.7-19.5,1-27.1,8.2C61.5,54.6,54.2,62.6,46,69.7c-11.8,10.1-25,17.7-41.2,18.2C3.3,87.9,1.8,87.8,0,87.8z"/>
		<path class="st0" d="M63.7,86.9c4.4,3.7,7.7,7.4,11.8,9.7c13.4,7.8,28.8,5.3,39.6-6c10.9-11.4,22.2-22.5,35.8-30.7
			c9.6-5.8,20.1-8.3,31.6-8.4c0,13,0,25.5,0,38.4c-12.7,0.5-21.1,8.1-29.2,16.6c-6.2,6.5-12.3,13.1-19.1,18.9
			c-8.9,7.7-19.8,11.8-31.3,13.4c-24,3.3-45.2-2.9-62.6-20.3c-3.1-3.1-2.9-5.1,0.2-8.1C48.5,102.7,56.2,94.6,63.7,86.9z"/>
	</g>
</g>
</svg>
